<mxfile host="app.diagrams.net" modified="2023-08-23T15:57:44.973Z" agent="Mozilla/5.0 (Windows NT 10.0; Win64; x64) AppleWebKit/537.36 (KHTML, like Gecko) Chrome/114.0.0.0 Safari/537.36 Edg/114.0.1823.67" etag="8s0q7hgI2aOND9L_3O9j" version="21.6.8" type="device">
  <diagram name="Page-1" id="dPQ49DUuNcnMO7IP9f-k">
    <mxGraphModel dx="1379" dy="764" grid="1" gridSize="10" guides="1" tooltips="1" connect="1" arrows="1" fold="1" page="1" pageScale="1" pageWidth="827" pageHeight="1169" math="0" shadow="0">
      <root>
        <mxCell id="0" />
        <mxCell id="1" parent="0" />
        <UserObject label="&lt;b&gt;Bornier 3 pôles&lt;/b&gt;&lt;br&gt;&lt;font style=&quot;font-size: 10px;&quot;&gt;300V / 16A&amp;nbsp;&lt;br&gt;Würth Elektronik&lt;br&gt;691137710003&lt;/font&gt;" link="https://www.digikey.ch/fr/products/detail/w%C3%BCrth-elektronik/691137710003/6644052" linkTarget="_blank" id="Gv8s1OccMqi0iUOAEmng-1">
          <mxCell style="rounded=1;whiteSpace=wrap;html=1;fillColor=#FFFFFF;" vertex="1" parent="1">
            <mxGeometry x="1030" y="310" width="120" height="80" as="geometry" />
          </mxCell>
        </UserObject>
        <UserObject label="&lt;b&gt;Bornier 3 pôles&lt;/b&gt;&lt;br&gt;&lt;font style=&quot;font-size: 10px;&quot;&gt;300V / 16A&lt;br&gt;Würth Elektronik&lt;br&gt;691137710003&lt;/font&gt;" link="https://www.digikey.ch/fr/products/detail/w%C3%BCrth-elektronik/691137710003/6644052" linkTarget="_blank" id="Gv8s1OccMqi0iUOAEmng-2">
          <mxCell style="rounded=1;whiteSpace=wrap;html=1;fillColor=#FFFFFF;" vertex="1" parent="1">
            <mxGeometry x="970" y="180" width="120" height="80" as="geometry" />
          </mxCell>
        </UserObject>
        <mxCell id="Gv8s1OccMqi0iUOAEmng-3" value="230 VAC" style="ellipse;whiteSpace=wrap;html=1;fillColor=#FFFFFF;" vertex="1" parent="1">
          <mxGeometry x="170" y="50" width="60" height="60" as="geometry" />
        </mxCell>
        <mxCell id="Gv8s1OccMqi0iUOAEmng-4" value="230 VAC" style="ellipse;whiteSpace=wrap;html=1;fillColor=#FFFFFF;" vertex="1" parent="1">
          <mxGeometry x="827" y="50" width="60" height="60" as="geometry" />
        </mxCell>
        <UserObject label="&lt;b&gt;Relai général&lt;/b&gt;&lt;br&gt;&lt;font style=&quot;font-size: 10px;&quot;&gt;3V / 16A&lt;br&gt;Panasonic&lt;br&gt;ADW1203HLW&lt;/font&gt;" link="https://www.digikey.ch/fr/products/detail/panasonic-electric-works/ADW1203HLW/6012614" linkTarget="_blank" id="Gv8s1OccMqi0iUOAEmng-5">
          <mxCell style="rounded=1;whiteSpace=wrap;html=1;gradientColor=none;fillColor=#FFFFFF;" vertex="1" parent="1">
            <mxGeometry x="500" y="40" width="120" height="80" as="geometry" />
          </mxCell>
        </UserObject>
        <mxCell id="Gv8s1OccMqi0iUOAEmng-22" value="" style="edgeStyle=orthogonalEdgeStyle;rounded=0;orthogonalLoop=1;jettySize=auto;html=1;" edge="1" parent="1" source="Gv8s1OccMqi0iUOAEmng-11" target="Gv8s1OccMqi0iUOAEmng-5">
          <mxGeometry relative="1" as="geometry" />
        </mxCell>
        <mxCell id="Gv8s1OccMqi0iUOAEmng-11" value="PIC32" style="rounded=1;whiteSpace=wrap;html=1;" vertex="1" parent="1">
          <mxGeometry x="500" y="160" width="120" height="240" as="geometry" />
        </mxCell>
        <UserObject label="&lt;b&gt;Convert. AC/DC&lt;br&gt;&lt;/b&gt;&lt;font style=&quot;font-size: 10px;&quot;&gt;3V3 / 3W&lt;br&gt;Recom Power&lt;br&gt;RAC03-3.3SK&lt;/font&gt;" link="https://www.digikey.ch/fr/products/detail/recom-power/RAC03-3-3SK/10131799" linkTarget="_blank" id="Gv8s1OccMqi0iUOAEmng-12">
          <mxCell style="rounded=1;whiteSpace=wrap;html=1;" vertex="1" parent="1">
            <mxGeometry x="320" y="160" width="120" height="80" as="geometry" />
          </mxCell>
        </UserObject>
        <UserObject label="&lt;b&gt;LEDS&lt;br&gt;&lt;/b&gt;" link="https://www.digikey.ch/fr/products/detail/cui-devices/CEM-1201-42/412410" linkTarget="_blank" id="Gv8s1OccMqi0iUOAEmng-13">
          <mxCell style="rounded=1;whiteSpace=wrap;html=1;" vertex="1" parent="1">
            <mxGeometry x="680" y="160" width="120" height="80" as="geometry" />
          </mxCell>
        </UserObject>
        <mxCell id="Gv8s1OccMqi0iUOAEmng-16" value="" style="edgeStyle=orthogonalEdgeStyle;rounded=0;orthogonalLoop=1;jettySize=auto;html=1;" edge="1" parent="1" source="Gv8s1OccMqi0iUOAEmng-14" target="Gv8s1OccMqi0iUOAEmng-5">
          <mxGeometry relative="1" as="geometry" />
        </mxCell>
        <mxCell id="Gv8s1OccMqi0iUOAEmng-17" value="" style="edgeStyle=orthogonalEdgeStyle;rounded=0;orthogonalLoop=1;jettySize=auto;html=1;" edge="1" parent="1" source="Gv8s1OccMqi0iUOAEmng-14" target="Gv8s1OccMqi0iUOAEmng-12">
          <mxGeometry relative="1" as="geometry" />
        </mxCell>
        <UserObject label="&lt;b&gt;Fusible&lt;br&gt;&lt;/b&gt;&lt;font style=&quot;font-size: 10px;&quot;&gt;250V / 15A&lt;br&gt;Little Fuse Inc.&lt;br&gt;0217015.MXP&lt;/font&gt;" link="https://www.digikey.ch/fr/products/detail/littelfuse-inc/0217015-MXP/777558" linkTarget="_blank" id="Gv8s1OccMqi0iUOAEmng-14">
          <mxCell style="rounded=1;whiteSpace=wrap;html=1;fillColor=#FFFFFF;" vertex="1" parent="1">
            <mxGeometry x="320" y="40" width="120" height="80" as="geometry" />
          </mxCell>
        </UserObject>
        <UserObject label="&lt;b&gt;Buzzer&lt;/b&gt;&lt;br&gt;&lt;font style=&quot;font-size: 10px;&quot;&gt;1~2V / 20mA&lt;br&gt;CUI Devices&lt;br&gt;CEM-1201(42)&lt;/font&gt;" link="https://www.digikey.ch/fr/products/detail/cui-devices/CEM-1201-42/412410" linkTarget="_blank" id="Gv8s1OccMqi0iUOAEmng-18">
          <mxCell style="rounded=1;whiteSpace=wrap;html=1;" vertex="1" parent="1">
            <mxGeometry x="680" y="300" width="120" height="80" as="geometry" />
          </mxCell>
        </UserObject>
        <mxCell id="Gv8s1OccMqi0iUOAEmng-21" style="edgeStyle=orthogonalEdgeStyle;rounded=0;orthogonalLoop=1;jettySize=auto;html=1;exitX=1;exitY=0.5;exitDx=0;exitDy=0;entryX=0;entryY=0.75;entryDx=0;entryDy=0;" edge="1" parent="1" source="Gv8s1OccMqi0iUOAEmng-19" target="Gv8s1OccMqi0iUOAEmng-11">
          <mxGeometry relative="1" as="geometry" />
        </mxCell>
        <UserObject label="&lt;b style=&quot;&quot;&gt;&lt;font style=&quot;font-size: 12px;&quot;&gt;Bouton poussoir&lt;/font&gt;&lt;/b&gt;&lt;font style=&quot;font-size: 10px;&quot;&gt;&lt;br&gt;E-Switch&lt;br&gt;PV5S24011&lt;/font&gt;" link="https://www.digikey.ch/fr/products/detail/e-switch/PV5S24011/4028816?s=N4IgTCBcDaIKIHECsBOALCgtAOQCIgF0BfIA" linkTarget="_blank" id="Gv8s1OccMqi0iUOAEmng-19">
          <mxCell style="rounded=1;whiteSpace=wrap;html=1;" vertex="1" parent="1">
            <mxGeometry x="320" y="300" width="120" height="80" as="geometry" />
          </mxCell>
        </UserObject>
        <UserObject label="&lt;font style=&quot;&quot;&gt;&lt;b&gt;Module Wifi&lt;br&gt;&lt;/b&gt;&lt;/font&gt;&lt;font style=&quot;font-size: 10px;&quot;&gt;Espressif Systems&lt;br&gt;ESP32-C3-WROOM-02&lt;/font&gt;" link="https://www.digikey.ch/fr/products/detail/espressif-systems/ESP32-C3-WROOM-02-N4/14553031" linkTarget="_blank" id="Gv8s1OccMqi0iUOAEmng-23">
          <mxCell style="rounded=1;whiteSpace=wrap;html=1;" vertex="1" parent="1">
            <mxGeometry x="600" y="440" width="120" height="80" as="geometry" />
          </mxCell>
        </UserObject>
        <mxCell id="Gv8s1OccMqi0iUOAEmng-25" value="Alimentation&lt;br&gt;3V3 / 900mA" style="rounded=0;whiteSpace=wrap;html=1;" vertex="1" parent="1">
          <mxGeometry x="160" y="480" width="120" height="60" as="geometry" />
        </mxCell>
        <mxCell id="Gv8s1OccMqi0iUOAEmng-26" value="PIC32" style="rounded=0;whiteSpace=wrap;html=1;" vertex="1" parent="1">
          <mxGeometry x="260" y="620" width="120" height="60" as="geometry" />
        </mxCell>
      </root>
    </mxGraphModel>
  </diagram>
</mxfile>
